<mxfile host="app.diagrams.net" agent="Mozilla/5.0 (Windows NT 10.0; Win64; x64) AppleWebKit/537.36 (KHTML, like Gecko) Chrome/136.0.0.0 Safari/537.36" version="27.1.1" pages="3">
  <diagram id="C5RBs43oDa-KdzZeNtuy" name="Page-1">
    <mxGraphModel dx="1793" dy="884" grid="1" gridSize="10" guides="1" tooltips="1" connect="1" arrows="1" fold="1" page="1" pageScale="1" pageWidth="827" pageHeight="1169" math="0" shadow="0">
      <root>
        <mxCell id="WIyWlLk6GJQsqaUBKTNV-0" />
        <mxCell id="WIyWlLk6GJQsqaUBKTNV-1" parent="WIyWlLk6GJQsqaUBKTNV-0" />
        <mxCell id="rd_QlPSfM4D5r_hE3z7o-5" value="" style="edgeStyle=orthogonalEdgeStyle;rounded=0;orthogonalLoop=1;jettySize=auto;html=1;fillColor=#E1D5E7;" parent="WIyWlLk6GJQsqaUBKTNV-1" source="rd_QlPSfM4D5r_hE3z7o-1" target="rd_QlPSfM4D5r_hE3z7o-4" edge="1">
          <mxGeometry relative="1" as="geometry" />
        </mxCell>
        <mxCell id="rd_QlPSfM4D5r_hE3z7o-1" value="Camera records Imagery" style="rounded=0;whiteSpace=wrap;html=1;fillColor=#E1D5E7;" parent="WIyWlLk6GJQsqaUBKTNV-1" vertex="1">
          <mxGeometry x="96.5" y="220" width="120" height="50" as="geometry" />
        </mxCell>
        <mxCell id="rd_QlPSfM4D5r_hE3z7o-8" value="" style="edgeStyle=orthogonalEdgeStyle;rounded=0;orthogonalLoop=1;jettySize=auto;html=1;fillColor=#E1D5E7;" parent="WIyWlLk6GJQsqaUBKTNV-1" source="rd_QlPSfM4D5r_hE3z7o-4" target="rd_QlPSfM4D5r_hE3z7o-7" edge="1">
          <mxGeometry relative="1" as="geometry" />
        </mxCell>
        <mxCell id="rd_QlPSfM4D5r_hE3z7o-4" value="Pre-processing&amp;nbsp;&lt;div&gt;(fisheye processing&lt;span style=&quot;background-color: transparent; color: light-dark(rgb(0, 0, 0), rgb(255, 255, 255));&quot;&gt;)&lt;/span&gt;&lt;/div&gt;" style="ellipse;whiteSpace=wrap;html=1;fillColor=#E1D5E7;" parent="WIyWlLk6GJQsqaUBKTNV-1" vertex="1">
          <mxGeometry x="96.5" y="300" width="120" height="80" as="geometry" />
        </mxCell>
        <mxCell id="rd_QlPSfM4D5r_hE3z7o-26" style="edgeStyle=orthogonalEdgeStyle;rounded=0;orthogonalLoop=1;jettySize=auto;html=1;entryX=0;entryY=0.5;entryDx=0;entryDy=0;fillColor=#E1D5E7;" parent="WIyWlLk6GJQsqaUBKTNV-1" source="rd_QlPSfM4D5r_hE3z7o-7" target="rd_QlPSfM4D5r_hE3z7o-11" edge="1">
          <mxGeometry relative="1" as="geometry" />
        </mxCell>
        <mxCell id="rd_QlPSfM4D5r_hE3z7o-7" value="Black and White conversion" style="ellipse;whiteSpace=wrap;html=1;fillColor=#E1D5E7;" parent="WIyWlLk6GJQsqaUBKTNV-1" vertex="1">
          <mxGeometry x="96.5" y="400" width="120" height="80" as="geometry" />
        </mxCell>
        <mxCell id="MH6kXEx2DqcVbVFkg1yE-5" style="edgeStyle=orthogonalEdgeStyle;rounded=0;orthogonalLoop=1;jettySize=auto;html=1;entryX=0.5;entryY=1;entryDx=0;entryDy=0;fillColor=#E1D5E7;" parent="WIyWlLk6GJQsqaUBKTNV-1" source="rd_QlPSfM4D5r_hE3z7o-11" target="rd_QlPSfM4D5r_hE3z7o-13" edge="1">
          <mxGeometry relative="1" as="geometry">
            <Array as="points">
              <mxPoint x="340.5" y="530" />
            </Array>
          </mxGeometry>
        </mxCell>
        <mxCell id="rd_QlPSfM4D5r_hE3z7o-11" value="Object recognition" style="ellipse;whiteSpace=wrap;html=1;fillColor=#C3ABD0;" parent="WIyWlLk6GJQsqaUBKTNV-1" vertex="1">
          <mxGeometry x="186.5" y="490" width="120" height="80" as="geometry" />
        </mxCell>
        <mxCell id="rd_QlPSfM4D5r_hE3z7o-16" value="" style="edgeStyle=orthogonalEdgeStyle;rounded=0;orthogonalLoop=1;jettySize=auto;html=1;fillColor=#E1D5E7;" parent="WIyWlLk6GJQsqaUBKTNV-1" source="rd_QlPSfM4D5r_hE3z7o-13" target="rd_QlPSfM4D5r_hE3z7o-15" edge="1">
          <mxGeometry relative="1" as="geometry" />
        </mxCell>
        <mxCell id="rd_QlPSfM4D5r_hE3z7o-13" value="Detect Object in Stereo image" style="ellipse;whiteSpace=wrap;html=1;fillColor=#E1D5E7;" parent="WIyWlLk6GJQsqaUBKTNV-1" vertex="1">
          <mxGeometry x="280.5" y="400" width="120" height="80" as="geometry" />
        </mxCell>
        <mxCell id="rd_QlPSfM4D5r_hE3z7o-20" value="" style="edgeStyle=orthogonalEdgeStyle;rounded=0;orthogonalLoop=1;jettySize=auto;html=1;fillColor=#E1D5E7;" parent="WIyWlLk6GJQsqaUBKTNV-1" source="rd_QlPSfM4D5r_hE3z7o-15" target="rd_QlPSfM4D5r_hE3z7o-19" edge="1">
          <mxGeometry relative="1" as="geometry" />
        </mxCell>
        <mxCell id="rd_QlPSfM4D5r_hE3z7o-15" value="Calculate Disparity&amp;nbsp;" style="ellipse;whiteSpace=wrap;html=1;fillColor=#E1D5E7;" parent="WIyWlLk6GJQsqaUBKTNV-1" vertex="1">
          <mxGeometry x="280.5" y="300" width="120" height="80" as="geometry" />
        </mxCell>
        <mxCell id="U3r4i_t9mM_G8cwDlLlw-13" value="" style="edgeStyle=orthogonalEdgeStyle;rounded=0;orthogonalLoop=1;jettySize=auto;html=1;fillColor=#E1D5E7;" parent="WIyWlLk6GJQsqaUBKTNV-1" source="rd_QlPSfM4D5r_hE3z7o-19" target="rd_QlPSfM4D5r_hE3z7o-1" edge="1">
          <mxGeometry relative="1" as="geometry" />
        </mxCell>
        <mxCell id="yPKXTUc-BQVntb9Vs2w6-0" style="edgeStyle=orthogonalEdgeStyle;rounded=0;orthogonalLoop=1;jettySize=auto;html=1;entryX=0.5;entryY=0;entryDx=0;entryDy=0;" parent="WIyWlLk6GJQsqaUBKTNV-1" source="rd_QlPSfM4D5r_hE3z7o-19" target="U3r4i_t9mM_G8cwDlLlw-14" edge="1">
          <mxGeometry relative="1" as="geometry">
            <Array as="points">
              <mxPoint x="426.5" y="245" />
              <mxPoint x="426.5" y="200" />
              <mxPoint x="671.5" y="200" />
            </Array>
          </mxGeometry>
        </mxCell>
        <mxCell id="rd_QlPSfM4D5r_hE3z7o-19" value="Generate Depth-Map" style="whiteSpace=wrap;html=1;fillColor=#E1D5E7;" parent="WIyWlLk6GJQsqaUBKTNV-1" vertex="1">
          <mxGeometry x="280.5" y="220" width="120" height="50" as="geometry" />
        </mxCell>
        <mxCell id="rd_QlPSfM4D5r_hE3z7o-25" value="Image Processing Loop" style="rounded=1;whiteSpace=wrap;html=1;fillColor=#7EA6E0;" parent="WIyWlLk6GJQsqaUBKTNV-1" vertex="1">
          <mxGeometry x="186.5" y="120" width="120" height="60" as="geometry" />
        </mxCell>
        <mxCell id="MH6kXEx2DqcVbVFkg1yE-9" value="" style="edgeStyle=orthogonalEdgeStyle;rounded=0;orthogonalLoop=1;jettySize=auto;html=1;fillColor=#D5E8D4;" parent="WIyWlLk6GJQsqaUBKTNV-1" source="MH6kXEx2DqcVbVFkg1yE-6" target="MH6kXEx2DqcVbVFkg1yE-8" edge="1">
          <mxGeometry relative="1" as="geometry" />
        </mxCell>
        <mxCell id="MH6kXEx2DqcVbVFkg1yE-6" value="Transmit Signal from Master across channel" style="rounded=0;whiteSpace=wrap;html=1;fillColor=#D5E8D4;" parent="WIyWlLk6GJQsqaUBKTNV-1" vertex="1">
          <mxGeometry x="416.5" y="495" width="126" height="50" as="geometry" />
        </mxCell>
        <mxCell id="MH6kXEx2DqcVbVFkg1yE-7" value="UWB Loop&amp;nbsp;" style="rounded=1;whiteSpace=wrap;html=1;fillColor=#FF8282;" parent="WIyWlLk6GJQsqaUBKTNV-1" vertex="1">
          <mxGeometry x="506.5" y="400" width="120" height="60" as="geometry" />
        </mxCell>
        <mxCell id="MH6kXEx2DqcVbVFkg1yE-10" style="edgeStyle=orthogonalEdgeStyle;rounded=0;orthogonalLoop=1;jettySize=auto;html=1;fillColor=#D5E8D4;" parent="WIyWlLk6GJQsqaUBKTNV-1" source="MH6kXEx2DqcVbVFkg1yE-8" edge="1">
          <mxGeometry relative="1" as="geometry">
            <mxPoint x="479.5" y="675" as="targetPoint" />
          </mxGeometry>
        </mxCell>
        <mxCell id="MH6kXEx2DqcVbVFkg1yE-8" value="Receive&amp;nbsp;" style="ellipse;whiteSpace=wrap;html=1;fillColor=#D5E8D4;" parent="WIyWlLk6GJQsqaUBKTNV-1" vertex="1">
          <mxGeometry x="419.5" y="575" width="120" height="80" as="geometry" />
        </mxCell>
        <mxCell id="U3r4i_t9mM_G8cwDlLlw-1" style="edgeStyle=orthogonalEdgeStyle;rounded=0;orthogonalLoop=1;jettySize=auto;html=1;fillColor=#D5E8D4;" parent="WIyWlLk6GJQsqaUBKTNV-1" source="MH6kXEx2DqcVbVFkg1yE-11" target="U3r4i_t9mM_G8cwDlLlw-0" edge="1">
          <mxGeometry relative="1" as="geometry" />
        </mxCell>
        <mxCell id="MH6kXEx2DqcVbVFkg1yE-11" value="Process and intake message, compare position&amp;nbsp;" style="ellipse;whiteSpace=wrap;html=1;fillColor=#D5E8D4;" parent="WIyWlLk6GJQsqaUBKTNV-1" vertex="1">
          <mxGeometry x="419.5" y="675" width="120" height="80" as="geometry" />
        </mxCell>
        <mxCell id="U3r4i_t9mM_G8cwDlLlw-3" value="" style="edgeStyle=orthogonalEdgeStyle;rounded=0;orthogonalLoop=1;jettySize=auto;html=1;fillColor=#D5E8D4;" parent="WIyWlLk6GJQsqaUBKTNV-1" source="U3r4i_t9mM_G8cwDlLlw-0" target="U3r4i_t9mM_G8cwDlLlw-2" edge="1">
          <mxGeometry relative="1" as="geometry" />
        </mxCell>
        <mxCell id="U3r4i_t9mM_G8cwDlLlw-0" value="Perform operations to calculate relative distance/angle" style="ellipse;whiteSpace=wrap;html=1;fillColor=#D5E8D4;" parent="WIyWlLk6GJQsqaUBKTNV-1" vertex="1">
          <mxGeometry x="586.5" y="675" width="120" height="80" as="geometry" />
        </mxCell>
        <mxCell id="U3r4i_t9mM_G8cwDlLlw-22" value="" style="edgeStyle=orthogonalEdgeStyle;rounded=0;orthogonalLoop=1;jettySize=auto;html=1;fillColor=#D5E8D4;" parent="WIyWlLk6GJQsqaUBKTNV-1" source="U3r4i_t9mM_G8cwDlLlw-2" target="U3r4i_t9mM_G8cwDlLlw-21" edge="1">
          <mxGeometry relative="1" as="geometry" />
        </mxCell>
        <mxCell id="U3r4i_t9mM_G8cwDlLlw-2" value="Perform operations to calculate relative distance/angle" style="ellipse;whiteSpace=wrap;html=1;fillColor=#D5E8D4;" parent="WIyWlLk6GJQsqaUBKTNV-1" vertex="1">
          <mxGeometry x="586.5" y="570" width="120" height="80" as="geometry" />
        </mxCell>
        <mxCell id="U3r4i_t9mM_G8cwDlLlw-24" value="" style="edgeStyle=orthogonalEdgeStyle;rounded=0;orthogonalLoop=1;jettySize=auto;html=1;" parent="WIyWlLk6GJQsqaUBKTNV-1" source="U3r4i_t9mM_G8cwDlLlw-8" target="U3r4i_t9mM_G8cwDlLlw-14" edge="1">
          <mxGeometry relative="1" as="geometry" />
        </mxCell>
        <mxCell id="U3r4i_t9mM_G8cwDlLlw-8" value="Send Instructions to Motors&amp;nbsp;" style="whiteSpace=wrap;html=1;fillColor=#FF6666;" parent="WIyWlLk6GJQsqaUBKTNV-1" vertex="1">
          <mxGeometry x="461.5" y="220" width="120" height="50" as="geometry" />
        </mxCell>
        <mxCell id="U3r4i_t9mM_G8cwDlLlw-14" value="Send Interrupts (e.g Stop)&amp;nbsp;&amp;nbsp;" style="whiteSpace=wrap;html=1;fillColor=#FFE599;" parent="WIyWlLk6GJQsqaUBKTNV-1" vertex="1">
          <mxGeometry x="611.5" y="220" width="120" height="50" as="geometry" />
        </mxCell>
        <mxCell id="U3r4i_t9mM_G8cwDlLlw-23" value="" style="edgeStyle=orthogonalEdgeStyle;rounded=0;orthogonalLoop=1;jettySize=auto;html=1;" parent="WIyWlLk6GJQsqaUBKTNV-1" source="U3r4i_t9mM_G8cwDlLlw-21" edge="1">
          <mxGeometry relative="1" as="geometry">
            <mxPoint x="631.5" y="520" as="sourcePoint" />
            <mxPoint x="521.5" y="270" as="targetPoint" />
            <Array as="points">
              <mxPoint x="731.5" y="520" />
              <mxPoint x="731.5" y="350" />
              <mxPoint x="521.5" y="350" />
            </Array>
          </mxGeometry>
        </mxCell>
        <mxCell id="kbq1ii0_WUdbkzGY9dXV-0" value="" style="edgeStyle=orthogonalEdgeStyle;rounded=0;orthogonalLoop=1;jettySize=auto;html=1;fillColor=#D5E8D4;" parent="WIyWlLk6GJQsqaUBKTNV-1" source="U3r4i_t9mM_G8cwDlLlw-21" target="MH6kXEx2DqcVbVFkg1yE-6" edge="1">
          <mxGeometry relative="1" as="geometry" />
        </mxCell>
        <mxCell id="U3r4i_t9mM_G8cwDlLlw-21" value="Generate vector" style="whiteSpace=wrap;html=1;fillColor=#D5E8D4;" parent="WIyWlLk6GJQsqaUBKTNV-1" vertex="1">
          <mxGeometry x="586.5" y="495" width="120" height="50" as="geometry" />
        </mxCell>
        <mxCell id="BJ406WjZerEhaVlmIf7x-0" value="4. Control" style="rounded=0;whiteSpace=wrap;html=1;fillColor=#97D077;" vertex="1" parent="WIyWlLk6GJQsqaUBKTNV-1">
          <mxGeometry x="354" y="20" width="120" height="60" as="geometry" />
        </mxCell>
      </root>
    </mxGraphModel>
  </diagram>
  <diagram id="5HnrpaC7gH8MJDmgx9hy" name="Page-2">
    <mxGraphModel dx="1191" dy="1302" grid="0" gridSize="10" guides="1" tooltips="1" connect="1" arrows="1" fold="1" page="0" pageScale="1" pageWidth="850" pageHeight="1100" math="0" shadow="0">
      <root>
        <mxCell id="0" />
        <mxCell id="1" parent="0" />
        <mxCell id="apyqzhPTssLmpKWB17XJ-2" value="" style="edgeStyle=none;curved=1;rounded=0;orthogonalLoop=1;jettySize=auto;html=1;fontSize=12;startSize=8;endSize=8;" parent="1" target="kqEHz3gJD7D6tYrZ2SRy-5" edge="1">
          <mxGeometry relative="1" as="geometry">
            <mxPoint x="-19" y="-86" as="sourcePoint" />
          </mxGeometry>
        </mxCell>
        <mxCell id="kqEHz3gJD7D6tYrZ2SRy-2" value="HARDWARE DIAGRAM" style="text;html=1;align=center;verticalAlign=middle;resizable=0;points=[];autosize=1;strokeColor=none;fillColor=none;fontSize=16;" parent="1" vertex="1">
          <mxGeometry x="-99" y="-184" width="190" height="31" as="geometry" />
        </mxCell>
        <mxCell id="apyqzhPTssLmpKWB17XJ-11" value="" style="edgeStyle=none;curved=1;rounded=0;orthogonalLoop=1;jettySize=auto;html=1;fontSize=12;startSize=8;endSize=8;entryX=0.5;entryY=1;entryDx=0;entryDy=0;" parent="1" source="kqEHz3gJD7D6tYrZ2SRy-4" edge="1" target="kqEHz3gJD7D6tYrZ2SRy-8">
          <mxGeometry relative="1" as="geometry">
            <mxPoint x="-250" y="-21" as="targetPoint" />
          </mxGeometry>
        </mxCell>
        <mxCell id="kqEHz3gJD7D6tYrZ2SRy-4" value="power drive motors&amp;nbsp;" style="rounded=1;whiteSpace=wrap;html=1;" parent="1" vertex="1">
          <mxGeometry x="-139" y="84" width="120" height="60" as="geometry" />
        </mxCell>
        <mxCell id="apyqzhPTssLmpKWB17XJ-3" value="" style="edgeStyle=none;curved=1;rounded=0;orthogonalLoop=1;jettySize=auto;html=1;fontSize=12;startSize=8;endSize=8;" parent="1" source="kqEHz3gJD7D6tYrZ2SRy-5" target="kqEHz3gJD7D6tYrZ2SRy-6" edge="1">
          <mxGeometry relative="1" as="geometry" />
        </mxCell>
        <mxCell id="apyqzhPTssLmpKWB17XJ-6" value="" style="edgeStyle=none;curved=1;rounded=0;orthogonalLoop=1;jettySize=auto;html=1;fontSize=12;startSize=8;endSize=8;" parent="1" source="kqEHz3gJD7D6tYrZ2SRy-5" edge="1">
          <mxGeometry relative="1" as="geometry">
            <mxPoint x="204" y="-86" as="targetPoint" />
          </mxGeometry>
        </mxCell>
        <mxCell id="kqEHz3gJD7D6tYrZ2SRy-5" value="if obstacle" style="rounded=1;whiteSpace=wrap;html=1;" parent="1" vertex="1">
          <mxGeometry x="37" y="-116" width="120" height="60" as="geometry" />
        </mxCell>
        <mxCell id="apyqzhPTssLmpKWB17XJ-7" value="" style="edgeStyle=none;curved=1;rounded=0;orthogonalLoop=1;jettySize=auto;html=1;fontSize=12;startSize=8;endSize=8;" parent="1" source="kqEHz3gJD7D6tYrZ2SRy-6" target="kqEHz3gJD7D6tYrZ2SRy-7" edge="1">
          <mxGeometry relative="1" as="geometry" />
        </mxCell>
        <mxCell id="kqEHz3gJD7D6tYrZ2SRy-6" value="using calculated path&amp;nbsp;&lt;div&gt;drive steering motors&lt;/div&gt;" style="rounded=1;whiteSpace=wrap;html=1;" parent="1" vertex="1">
          <mxGeometry x="37" y="-21" width="120" height="60" as="geometry" />
        </mxCell>
        <mxCell id="apyqzhPTssLmpKWB17XJ-13" value="" style="edgeStyle=none;curved=1;rounded=0;orthogonalLoop=1;jettySize=auto;html=1;fontSize=12;startSize=8;endSize=8;" parent="1" source="kqEHz3gJD7D6tYrZ2SRy-7" edge="1">
          <mxGeometry relative="1" as="geometry">
            <mxPoint x="83" y="193" as="targetPoint" />
          </mxGeometry>
        </mxCell>
        <mxCell id="kqEHz3gJD7D6tYrZ2SRy-7" value="power drive motors" style="rounded=1;whiteSpace=wrap;html=1;" parent="1" vertex="1">
          <mxGeometry x="37" y="84" width="120" height="60" as="geometry" />
        </mxCell>
        <mxCell id="apyqzhPTssLmpKWB17XJ-1" value="" style="edgeStyle=none;curved=1;rounded=0;orthogonalLoop=1;jettySize=auto;html=1;fontSize=12;startSize=8;endSize=8;" parent="1" source="kqEHz3gJD7D6tYrZ2SRy-8" edge="1">
          <mxGeometry relative="1" as="geometry">
            <mxPoint x="-139" y="-86" as="targetPoint" />
          </mxGeometry>
        </mxCell>
        <mxCell id="kqEHz3gJD7D6tYrZ2SRy-8" value="UWB scan&amp;nbsp;" style="rounded=1;whiteSpace=wrap;html=1;" parent="1" vertex="1">
          <mxGeometry x="-315" y="-116" width="120" height="60" as="geometry" />
        </mxCell>
        <mxCell id="apyqzhPTssLmpKWB17XJ-21" value="" style="edgeStyle=none;curved=1;rounded=0;orthogonalLoop=1;jettySize=auto;html=1;fontSize=12;startSize=8;endSize=8;" parent="1" source="apyqzhPTssLmpKWB17XJ-4" target="kqEHz3gJD7D6tYrZ2SRy-4" edge="1">
          <mxGeometry relative="1" as="geometry" />
        </mxCell>
        <mxCell id="apyqzhPTssLmpKWB17XJ-4" value="if clear&amp;nbsp;" style="rounded=1;whiteSpace=wrap;html=1;" parent="1" vertex="1">
          <mxGeometry x="-136" y="-18" width="120" height="60" as="geometry" />
        </mxCell>
        <mxCell id="apyqzhPTssLmpKWB17XJ-14" value="" style="endArrow=classic;html=1;rounded=0;fontSize=12;startSize=8;endSize=8;curved=1;" parent="1" edge="1">
          <mxGeometry width="50" height="50" relative="1" as="geometry">
            <mxPoint x="86" y="197" as="sourcePoint" />
            <mxPoint x="-252" y="183" as="targetPoint" />
            <Array as="points">
              <mxPoint x="100" y="180" />
            </Array>
          </mxGeometry>
        </mxCell>
        <mxCell id="apyqzhPTssLmpKWB17XJ-15" value="" style="endArrow=classic;html=1;rounded=0;fontSize=12;startSize=8;endSize=8;curved=1;entryX=0.5;entryY=1;entryDx=0;entryDy=0;" parent="1" edge="1" target="kqEHz3gJD7D6tYrZ2SRy-8">
          <mxGeometry width="50" height="50" relative="1" as="geometry">
            <mxPoint x="-245" y="183" as="sourcePoint" />
            <mxPoint x="-264" y="-11" as="targetPoint" />
          </mxGeometry>
        </mxCell>
        <mxCell id="apyqzhPTssLmpKWB17XJ-18" value="&lt;br&gt;&lt;span style=&quot;color: rgb(0, 0, 0); font-family: Helvetica; font-size: 12px; font-style: normal; font-variant-ligatures: normal; font-variant-caps: normal; font-weight: 400; letter-spacing: normal; orphans: 2; text-align: center; text-indent: 0px; text-transform: none; widows: 2; word-spacing: 0px; -webkit-text-stroke-width: 0px; white-space: normal; background-color: rgb(236, 236, 236); text-decoration-thickness: initial; text-decoration-style: initial; text-decoration-color: initial; float: none; display: inline !important;&quot;&gt;If stuck&lt;/span&gt;&lt;div style=&quot;forced-color-adjust: none; color: rgb(0, 0, 0); font-family: Helvetica; font-size: 12px; font-style: normal; font-variant-ligatures: normal; font-variant-caps: normal; font-weight: 400; letter-spacing: normal; orphans: 2; text-align: center; text-indent: 0px; text-transform: none; widows: 2; word-spacing: 0px; -webkit-text-stroke-width: 0px; white-space: normal; background-color: rgb(236, 236, 236); text-decoration-thickness: initial; text-decoration-style: initial; text-decoration-color: initial;&quot;&gt;Vibrate transmitter&lt;/div&gt;INDICATOR&lt;div&gt;&lt;br/&gt;&lt;/div&gt;" style="shape=hexagon;perimeter=hexagonPerimeter2;whiteSpace=wrap;html=1;fixedSize=1;" parent="1" vertex="1">
          <mxGeometry x="206" y="-126" width="120" height="80" as="geometry" />
        </mxCell>
        <mxCell id="apyqzhPTssLmpKWB17XJ-20" value="" style="edgeStyle=none;curved=1;rounded=0;orthogonalLoop=1;jettySize=auto;html=1;fontSize=12;startSize=8;endSize=8;" parent="1" source="apyqzhPTssLmpKWB17XJ-19" target="apyqzhPTssLmpKWB17XJ-4" edge="1">
          <mxGeometry relative="1" as="geometry" />
        </mxCell>
        <mxCell id="apyqzhPTssLmpKWB17XJ-19" value="visual processing" style="ellipse;whiteSpace=wrap;html=1;" parent="1" vertex="1">
          <mxGeometry x="-139" y="-131" width="120" height="80" as="geometry" />
        </mxCell>
      </root>
    </mxGraphModel>
  </diagram>
  <diagram id="00rKej8ThNamU1xAZgVy" name="Page-3">
    <mxGraphModel grid="0" page="0" gridSize="10" guides="1" tooltips="1" connect="1" arrows="1" fold="1" pageScale="1" pageWidth="850" pageHeight="1100" math="0" shadow="0">
      <root>
        <mxCell id="0" />
        <mxCell id="1" parent="0" />
      </root>
    </mxGraphModel>
  </diagram>
</mxfile>
